<svg width="95" height="34" viewBox="0 0 95 34" fill="none" xmlns="http://www.w3.org/2000/svg">
<rect y="1.97168" width="30.057" height="30.057" rx="15.0285" fill="url(#paint0_linear_7242_3527)"/>
<path d="M15.6643 11.4768C16.3968 11.4714 17.1296 11.4696 17.8623 11.4716C18.3378 11.4714 18.8919 11.4432 19.3593 11.4923C22.1733 11.7879 24.1273 14.2236 24.1627 16.9605C24.1742 18.4571 23.5981 19.8986 22.5581 20.975C21.5695 21.981 20.2192 22.5492 18.8089 22.5529C17.4019 22.5736 16.0448 22.0318 15.0392 21.0477C14.8909 20.9017 14.7093 20.7056 14.5895 20.5387C14.3113 20.2702 13.8675 19.3918 13.7437 19.006C14.692 18.985 15.6984 19.002 16.6524 19.002L16.8263 19.1737C17.1526 19.4459 17.4168 19.6404 17.8267 19.7699C19.0096 20.1434 20.1956 19.8229 20.9878 18.8597C21.4921 18.246 21.7283 17.4552 21.6432 16.6653C21.5666 15.8722 21.1756 15.1427 20.5576 14.6397C20.2322 14.3741 19.8474 14.1911 19.436 14.1061C19.0067 14.0136 18.3485 14.042 17.889 14.0423L15.6609 14.0435L15.6643 11.4768Z" fill="white"/>
<path d="M13.7437 19.0061C14.692 18.9851 15.6984 19.0021 16.6524 19.0021L16.8263 19.1738C16.7434 19.1585 16.7015 19.0973 16.6356 19.0307C16.3346 19.033 16.0337 19.0333 15.7326 19.0316C15.1653 19.0303 14.6455 18.9963 14.1797 19.4125C14.0854 19.4966 14.1403 19.5025 14.0158 19.5625C14.0525 19.7307 14.3452 20.1473 14.4544 20.3062C14.4942 20.364 14.5871 20.4743 14.601 20.5283L14.5895 20.5389C14.3113 20.2703 13.8675 19.3919 13.7437 19.0061Z" fill="white"/>
<path d="M14.7718 15.7029C15.6717 15.7164 16.5844 15.6909 17.4834 15.7063L17.483 18.2242L15.3965 18.2329C14.9589 18.2339 14.4871 18.2186 14.054 18.2449C13.227 18.3045 12.4619 18.631 11.8751 19.2191C11.4662 19.6289 11.2841 20.108 10.9534 20.5646C9.73957 22.2407 7.94925 22.6927 5.98364 22.6143L5.98874 20.0493C6.29101 20.0504 6.60912 20.0642 6.90977 20.0438C7.96651 19.9719 8.68293 19.5126 9.26947 18.6573C9.57752 18.1039 9.8824 17.6482 10.3338 17.1995C11.1559 16.3823 12.276 15.9079 13.4164 15.7595C13.834 15.7051 14.3504 15.6979 14.7718 15.7029Z" fill="white"/>
<path d="M5.9051 11.6497L7.5151 11.6511C7.76448 11.6513 8.10088 11.6414 8.33872 11.6586C8.36441 11.7024 8.35502 11.7369 8.35104 11.7888C8.37848 12.43 8.34439 13.0971 8.35392 13.7415C8.36422 14.4379 8.56178 15.0158 9.08498 15.4979C9.51163 15.8925 10.0782 16.1005 10.6588 16.0757C11.8621 16.0239 12.724 15.0172 12.7516 13.8435C12.7576 13.5876 12.7562 13.3323 12.7566 13.0765L12.761 11.6609C13.3992 11.6435 14.0432 11.6629 14.6819 11.6558C14.8051 11.6544 14.93 11.6555 15.0531 11.6604L15.0542 13.1961C15.055 14.1813 15.0563 14.746 14.7716 15.7029C14.3502 15.6978 13.8338 15.705 13.4162 15.7594C12.2758 15.9078 11.1557 16.3823 10.3335 17.1995C9.88218 17.6481 9.5773 18.1038 9.26925 18.6573C9.14536 18.5985 8.87516 18.5577 8.72456 18.5098C7.08453 17.9877 5.97034 16.192 5.92618 14.5014C5.88849 14.2082 5.90275 13.7311 5.90297 13.4195L5.9051 11.6497Z" fill="white"/>
<path d="M5.9051 11.6497L7.5151 11.6511C7.76448 11.6513 8.10088 11.6414 8.33872 11.6586C8.36441 11.7024 8.35502 11.7369 8.35104 11.7888C8.30693 11.9475 8.36731 12.4094 8.32235 12.4888L8.31055 12.4494L8.28823 12.4574C8.25618 12.5362 8.22506 12.6704 8.18201 12.7342C7.66965 13.4944 7.05238 14.1636 6.43822 14.8407C6.40992 14.8719 6.10454 15.074 6.06872 15.0918C6.04675 15.1253 6.04369 15.1241 6.03955 15.1631C6.02359 15.0568 5.96612 14.5802 5.94718 14.5062L5.92618 14.5014C5.88849 14.2082 5.90275 13.7311 5.90297 13.4195L5.9051 11.6497Z" fill="white"/>
<path d="M43.9189 28.7144H40.7023L42.6667 23.779L37.633 11.1826H40.8251L44.2382 20.0959H44.2873L47.7003 11.1826H50.8924L43.9189 28.7144ZM64.4193 18.7699H55.0396C55.4079 20.5869 56.7093 21.5937 58.6245 21.5937C60.0241 21.5937 60.859 21.3236 62.2095 20.3905L63.6336 22.4531C62.0621 23.7545 60.6134 24.2701 58.5263 24.2701C54.6467 24.2701 51.8966 21.3481 51.8966 17.5913C51.8966 13.8345 54.7695 10.9125 58.4035 10.9125C62.3568 10.9125 64.4193 13.9818 64.4193 17.6404V18.7699ZM55.015 16.56H61.3992C61.2518 15.0131 60.3433 13.5398 58.4281 13.5398C56.6847 13.5398 55.3588 14.6202 55.015 16.56ZM71.7105 28.7144H68.4938L70.4582 23.779L65.4245 11.1826H68.6166L72.0297 20.0959H72.0788L75.4918 11.1826H78.6839L71.7105 28.7144ZM79.6881 17.5913C79.6881 13.8345 82.5119 10.9125 86.3424 10.9125C90.1729 10.9125 92.9966 13.8345 92.9966 17.5913C92.9966 21.3481 90.1729 24.2701 86.3424 24.2701C82.5119 24.2701 79.6881 21.3481 79.6881 17.5913ZM86.3424 21.4709C88.4295 21.4709 89.8782 19.8012 89.8782 17.5913C89.8782 15.3569 88.4295 13.7117 86.3424 13.7117C84.2553 13.7117 82.782 15.3569 82.782 17.5913C82.782 19.8012 84.2553 21.4709 86.3424 21.4709Z" fill="white"/>
<defs>
<linearGradient id="paint0_linear_7242_3527" x1="0" y1="17.0002" x2="30.6917" y2="18.4329" gradientUnits="userSpaceOnUse">
<stop stop-color="#2B25D7"/>
<stop offset="1" stop-color="#3D61F1"/>
</linearGradient>
</defs>
</svg>
