<svg width="95" height="34" viewBox="0 0 95 34" fill="none" xmlns="http://www.w3.org/2000/svg">
<rect y="1.9715" width="30.057" height="30.057" rx="15.0285" fill="url(#paint0_linear_7290_920)"/>
<path d="M15.6643 11.4767C16.3968 11.4713 17.1296 11.4695 17.8623 11.4715C18.3378 11.4713 18.8919 11.4431 19.3593 11.4922C22.1733 11.7879 24.1273 14.2235 24.1627 16.9604C24.1742 18.4571 23.5981 19.8986 22.5581 20.9749C21.5695 21.9809 20.2192 22.5491 18.8089 22.5528C17.4019 22.5735 16.0448 22.0317 15.0392 21.0476C14.8909 20.9016 14.7093 20.7056 14.5895 20.5386C14.3113 20.2701 13.8675 19.3917 13.7437 19.0059C14.692 18.9849 15.6984 19.0019 16.6524 19.0019L16.8263 19.1736C17.1526 19.4458 17.4168 19.6403 17.8267 19.7699C19.0096 20.1433 20.1956 19.8228 20.9878 18.8596C21.4921 18.2459 21.7283 17.4551 21.6432 16.6653C21.5666 15.8721 21.1756 15.1426 20.5576 14.6396C20.2322 14.374 19.8474 14.191 19.436 14.106C19.0067 14.0135 18.3485 14.0419 17.889 14.0422L15.6609 14.0434L15.6643 11.4767Z" fill="white"/>
<path d="M13.7437 19.006C14.692 18.985 15.6984 19.002 16.6524 19.002L16.8263 19.1737C16.7434 19.1583 16.7015 19.0972 16.6356 19.0306C16.3346 19.0329 16.0337 19.0332 15.7326 19.0314C15.1653 19.0301 14.6455 18.9961 14.1797 19.4123C14.0854 19.4965 14.1403 19.5024 14.0158 19.5624C14.0525 19.7306 14.3452 20.1471 14.4544 20.3061C14.4942 20.3639 14.5871 20.4741 14.601 20.5282L14.5895 20.5387C14.3113 20.2702 13.8675 19.3918 13.7437 19.006Z" fill="white"/>
<path d="M14.7715 15.7026C15.6715 15.7161 16.5842 15.6906 17.4831 15.7059L17.4828 18.2239L15.3963 18.2325C14.9587 18.2335 14.4869 18.2183 14.0538 18.2446C13.2268 18.3041 12.4616 18.6307 11.8748 19.2188C11.466 19.6285 11.2839 20.1077 10.9532 20.5642C9.73933 22.2404 7.94901 22.6924 5.9834 22.614L5.9885 20.0489C6.29077 20.0501 6.60887 20.0638 6.90953 20.0434C7.96626 19.9716 8.68269 19.5123 9.26923 18.657C9.57728 18.1035 9.88216 17.6478 10.3335 17.1992C11.1557 16.382 12.2758 15.9075 13.4161 15.7591C13.8338 15.7047 14.3502 15.6975 14.7715 15.7026Z" fill="white"/>
<path d="M5.90535 11.6494L7.51534 11.6508C7.76473 11.651 8.10112 11.6412 8.33896 11.6584C8.36465 11.7021 8.35527 11.7366 8.35128 11.7885C8.37872 12.4298 8.34463 13.0969 8.35416 13.7412C8.36446 14.4376 8.56203 15.0156 9.08522 15.4977C9.51187 15.8923 10.0784 16.1003 10.659 16.0754C11.8624 16.0236 12.7243 15.017 12.7518 13.8433C12.7578 13.5874 12.7564 13.3321 12.7568 13.0762L12.7612 11.6607C13.3995 11.6433 14.0434 11.6627 14.6821 11.6555C14.8053 11.6542 14.9303 11.6553 15.0533 11.6602L15.0545 13.1958C15.0553 14.1811 15.0566 14.7458 14.7718 15.7026C14.3504 15.6976 13.8341 15.7048 13.4164 15.7592C12.2761 15.9076 11.156 16.3821 10.3338 17.1993C9.88242 17.6479 9.57755 18.1036 9.26949 18.6571C9.1456 18.5982 8.8754 18.5575 8.7248 18.5096C7.08478 17.9874 5.97059 16.1918 5.92642 14.5011C5.88874 14.2079 5.903 13.7308 5.90321 13.4193L5.90535 11.6494Z" fill="white"/>
<path d="M5.90535 11.6494L7.51534 11.6508C7.76473 11.651 8.10112 11.6412 8.33896 11.6584C8.36465 11.7021 8.35527 11.7366 8.35128 11.7885C8.30717 11.9472 8.36755 12.4091 8.3226 12.4886L8.3108 12.4492L8.28847 12.4572C8.25642 12.536 8.2253 12.6701 8.18226 12.734C7.66989 13.4942 7.05263 14.1634 6.43847 14.8405C6.41017 14.8716 6.10479 15.0738 6.06896 15.0916C6.047 15.1251 6.04394 15.1239 6.03979 15.1628C6.02383 15.0565 5.96636 14.5799 5.94742 14.5059L5.92642 14.5011C5.88874 14.2079 5.903 13.7308 5.90321 13.4193L5.90535 11.6494Z" fill="white"/>
<path d="M43.9189 28.7144H40.7023L42.6667 23.779L37.633 11.1826H40.8251L44.2382 20.0958H44.2873L47.7003 11.1826H50.8924L43.9189 28.7144ZM64.4193 18.7699H55.0396C55.4079 20.5869 56.7093 21.5936 58.6245 21.5936C60.0241 21.5936 60.859 21.3235 62.2095 20.3905L63.6336 22.453C62.0621 23.7544 60.6134 24.2701 58.5263 24.2701C54.6467 24.2701 51.8966 21.3481 51.8966 17.5913C51.8966 13.8345 54.7695 10.9125 58.4035 10.9125C62.3568 10.9125 64.4193 13.9818 64.4193 17.6404V18.7699ZM55.015 16.56H61.3992C61.2518 15.0131 60.3433 13.5398 58.4281 13.5398C56.6847 13.5398 55.3588 14.6202 55.015 16.56ZM71.7105 28.7144H68.4938L70.4582 23.779L65.4245 11.1826H68.6166L72.0297 20.0958H72.0788L75.4918 11.1826H78.6839L71.7105 28.7144ZM79.6881 17.5913C79.6881 13.8345 82.5119 10.9125 86.3424 10.9125C90.1729 10.9125 92.9966 13.8345 92.9966 17.5913C92.9966 21.3481 90.1729 24.2701 86.3424 24.2701C82.5119 24.2701 79.6881 21.3481 79.6881 17.5913ZM86.3424 21.4709C88.4295 21.4709 89.8782 19.8012 89.8782 17.5913C89.8782 15.3568 88.4295 13.7117 86.3424 13.7117C84.2553 13.7117 82.782 15.3568 82.782 17.5913C82.782 19.8012 84.2553 21.4709 86.3424 21.4709Z" fill="#0D0D23"/>
<defs>
<linearGradient id="paint0_linear_7290_920" x1="0" y1="17" x2="30.6917" y2="18.4327" gradientUnits="userSpaceOnUse">
<stop stop-color="#0956E4"/>
<stop offset="1" stop-color="#3D61F1"/>
</linearGradient>
</defs>
</svg>
