<svg width="20" height="20" viewBox="0 0 20 20" fill="none" xmlns="http://www.w3.org/2000/svg">
<path d="M12.7256 4.18919C12.9392 4.19017 13.1438 4.27546 13.2948 4.4265C13.4459 4.57754 13.5312 4.78211 13.5322 4.99571L13.5322 12.6044C13.536 12.7127 13.5179 12.8207 13.4791 12.9219C13.4403 13.0231 13.3815 13.1154 13.3063 13.1934C13.231 13.2713 13.1408 13.3334 13.041 13.3757C12.9413 13.4181 12.834 13.4399 12.7256 13.4399C12.6173 13.4399 12.51 13.4181 12.4102 13.3757C12.3105 13.3334 12.2203 13.2714 12.145 13.1934C12.0697 13.1154 12.0109 13.0231 11.9721 12.9219C11.9333 12.8207 11.9153 12.7127 11.9191 12.6044L11.9191 6.94354L4.16585 14.6968C4.01451 14.8481 3.80924 14.9332 3.5952 14.9332C3.38116 14.9332 3.17589 14.8481 3.02455 14.6968C2.8732 14.5455 2.78818 14.3402 2.78818 14.1261C2.78818 13.9121 2.8732 13.7068 3.02455 13.5555L10.7778 5.80224L5.11694 5.80224C4.90796 5.79486 4.71001 5.70666 4.56478 5.55621C4.41955 5.40576 4.33838 5.20482 4.33838 4.99571C4.33838 4.78661 4.41955 4.58566 4.56478 4.43522C4.71001 4.28477 4.90796 4.19657 5.11694 4.18919L12.7256 4.18919Z" fill="white"/>
</svg>
