<svg width="24" height="24" viewBox="0 0 24 24" fill="none" xmlns="http://www.w3.org/2000/svg">
<g clip-path="url(#clip0_7234_14487)">
<path d="M6.97056 7.79419H6.14704C5.71022 7.79419 5.29129 7.96772 4.98241 8.2766C4.67353 8.58548 4.5 9.00441 4.5 9.44123V16.8529C4.5 17.2897 4.67353 17.7087 4.98241 18.0175C5.29129 18.3264 5.71022 18.4999 6.14704 18.4999H13.5587C13.9955 18.4999 14.4145 18.3264 14.7233 18.0175C15.0322 17.7087 15.2058 17.2897 15.2058 16.8529V16.0294" stroke="white" stroke-opacity="0.7" stroke-width="1.64704" stroke-linecap="round" stroke-linejoin="round"/>
<path d="M14.3821 6.14713L16.8526 8.61769M17.9932 7.45241C18.3175 7.12807 18.4998 6.68817 18.4998 6.22948C18.4998 5.77079 18.3175 5.33089 17.9932 5.00655C17.6689 4.68221 17.229 4.5 16.7703 4.5C16.3116 4.5 15.8717 4.68221 15.5474 5.00655L8.61743 11.9118V14.3823H11.088L17.9932 7.45241Z" stroke="white" stroke-opacity="0.7" stroke-width="1.64704" stroke-linecap="round" stroke-linejoin="round"/>
</g>
<defs>
<clipPath id="clip0_7234_14487">
<rect width="24" height="24" fill="white"/>
</clipPath>
</defs>
</svg>
