<svg width="20" height="20" viewBox="0 0 20 20" fill="none" xmlns="http://www.w3.org/2000/svg">
<path d="M3.33317 17.5C2.87484 17.5 2.48262 17.3369 2.1565 17.0108C1.83039 16.6847 1.66706 16.2922 1.6665 15.8333V6.66667C1.6665 6.20833 1.82984 5.81611 2.1565 5.49C2.48317 5.16389 2.87539 5.00056 3.33317 5H6.6665V3.33333C6.6665 2.875 6.82984 2.48278 7.1565 2.15667C7.48317 1.83056 7.87539 1.66722 8.33317 1.66667H11.6665C12.1248 1.66667 12.5173 1.83 12.844 2.15667C13.1707 2.48333 13.3337 2.87556 13.3332 3.33333V5H16.6665C17.1248 5 17.5173 5.16333 17.844 5.49C18.1707 5.81667 18.3337 6.20889 18.3332 6.66667V15.8333C18.3332 16.2917 18.1701 16.6842 17.844 17.0108C17.5179 17.3375 17.1254 17.5006 16.6665 17.5H3.33317ZM8.33317 5H11.6665V3.33333H8.33317V5Z" fill="#0D0D23"/>
</svg>
