<svg width="20" height="20" viewBox="0 0 20 20" fill="none" xmlns="http://www.w3.org/2000/svg">
<path fill-rule="evenodd" clip-rule="evenodd" d="M4.65508 3.82159C4.16675 4.30992 4.16675 5.09492 4.16675 6.66659V14.1666C4.16675 15.7383 4.16675 16.5233 4.65508 17.0116C5.14341 17.4999 5.92841 17.4999 7.50008 17.4999H12.5001C14.0717 17.4999 14.8567 17.4999 15.3451 17.0116C15.8334 16.5233 15.8334 15.7383 15.8334 14.1666V6.66659C15.8334 5.09492 15.8334 4.30992 15.3451 3.82159C14.8567 3.33325 14.0717 3.33325 12.5001 3.33325H7.50008C5.92841 3.33325 5.14341 3.33325 4.65508 3.82159ZM7.50008 6.66659C7.27907 6.66659 7.06711 6.75438 6.91083 6.91066C6.75455 7.06694 6.66675 7.2789 6.66675 7.49992C6.66675 7.72093 6.75455 7.93289 6.91083 8.08917C7.06711 8.24545 7.27907 8.33325 7.50008 8.33325H12.5001C12.7211 8.33325 12.9331 8.24545 13.0893 8.08917C13.2456 7.93289 13.3334 7.72093 13.3334 7.49992C13.3334 7.2789 13.2456 7.06694 13.0893 6.91066C12.9331 6.75438 12.7211 6.66659 12.5001 6.66659H7.50008ZM7.50008 9.99992C7.27907 9.99992 7.06711 10.0877 6.91083 10.244C6.75455 10.4003 6.66675 10.6122 6.66675 10.8333C6.66675 11.0543 6.75455 11.2662 6.91083 11.4225C7.06711 11.5788 7.27907 11.6666 7.50008 11.6666H12.5001C12.7211 11.6666 12.9331 11.5788 13.0893 11.4225C13.2456 11.2662 13.3334 11.0543 13.3334 10.8333C13.3334 10.6122 13.2456 10.4003 13.0893 10.244C12.9331 10.0877 12.7211 9.99992 12.5001 9.99992H7.50008ZM7.50008 13.3333C7.27907 13.3333 7.06711 13.421 6.91083 13.5773C6.75455 13.7336 6.66675 13.9456 6.66675 14.1666C6.66675 14.3876 6.75455 14.5996 6.91083 14.7558C7.06711 14.9121 7.27907 14.9999 7.50008 14.9999H10.8334C11.0544 14.9999 11.2664 14.9121 11.4227 14.7558C11.579 14.5996 11.6667 14.3876 11.6667 14.1666C11.6667 13.9456 11.579 13.7336 11.4227 13.5773C11.2664 13.421 11.0544 13.3333 10.8334 13.3333H7.50008Z" fill="white"/>
</svg>
