<svg width="24" height="24" viewBox="0 0 24 24" fill="none" xmlns="http://www.w3.org/2000/svg">
<g clip-path="url(#clip0_7234_14486)">
<path d="M7.8335 10.0558C7.8335 9.4664 8.06765 8.9011 8.48445 8.4843C8.90125 8.0675 9.46655 7.83334 10.056 7.83334H17.2777C17.5695 7.83334 17.8585 7.89083 18.1282 8.00252C18.3978 8.11421 18.6428 8.27792 18.8492 8.4843C19.0556 8.69068 19.2193 8.93568 19.331 9.20533C19.4427 9.47498 19.5002 9.76398 19.5002 10.0558V17.2775C19.5002 17.5694 19.4427 17.8584 19.331 18.128C19.2193 18.3977 19.0556 18.6427 18.8492 18.8491C18.6428 19.0554 18.3978 19.2191 18.1282 19.3308C17.8585 19.4425 17.5695 19.5 17.2777 19.5H10.056C9.76413 19.5 9.47513 19.4425 9.20548 19.3308C8.93584 19.2191 8.69083 19.0554 8.48445 18.8491C8.27807 18.6427 8.11437 18.3977 8.00267 18.128C7.89098 17.8584 7.8335 17.5694 7.8335 17.2775V10.0558Z" stroke="white" stroke-opacity="0.7" stroke-width="1.66667" stroke-linecap="round" stroke-linejoin="round"/>
<path d="M5.34333 15.9475C5.0875 15.8021 4.87471 15.5916 4.72658 15.3374C4.57846 15.0832 4.50028 14.7942 4.5 14.5V6.16667C4.5 5.25 5.25 4.5 6.16667 4.5H14.5C15.125 4.5 15.465 4.82083 15.75 5.33333" stroke="white" stroke-opacity="0.7" stroke-width="1.66667" stroke-linecap="round" stroke-linejoin="round"/>
</g>
<defs>
<clipPath id="clip0_7234_14486">
<rect width="24" height="24" rx="12" fill="white"/>
</clipPath>
</defs>
</svg>
